<svg xmlns="http://www.w3.org/2000/svg" data-name="Layer 1" viewBox="0 0 64 64"><path fill="#a2e6f2" d="M38.42,22.51a7.12,7.12,0,0,0-3.36,2.4c0-.13-.07-.27-.11-.4A8.64,8.64,0,0,0,18.57,30,9.53,9.53,0,0,0,19,31a6.18,6.18,0,0,0-1.62.31,6.29,6.29,0,0,0,4,11.92l21.59-7.27a7.07,7.07,0,1,0-4.51-13.41Z"/><path fill="#024" d="M46,41H17a9,9,0,0,1,0-18,8.39,8.39,0,0,1,1,.06V23a12,12,0,0,1,24-1.14A9.82,9.82,0,0,1,46,21a10,10,0,0,1,0,20ZM17,25a7,7,0,0,0,0,14H46a8,8,0,1,0-4.47-14.64l-1.65,1.12.11-2.2c0-.09,0-.18,0-.28a10,10,0,1,0-19.93,1.17l.18,1.46-1.43-.38A6.76,6.76,0,0,0,17,25Z"/><path fill="#ffc500" d="M32,24a9,9,0,0,0-9,9c0,10,9,19,9,19s9-9,9-19A9,9,0,0,0,32,24Zm0,13a4,4,0,1,1,4-4A4,4,0,0,1,32,37Z"/><path fill="#024" d="M32,53.41l-.71-.7C30.91,52.33,22,43.3,22,33a10,10,0,0,1,20,0c0,10.3-8.91,19.33-9.29,19.71ZM32,25a8,8,0,0,0-8,8c0,7.84,5.92,15.19,8,17.53,2.08-2.34,8-9.69,8-17.53A8,8,0,0,0,32,25Zm0,13a5,5,0,1,1,5-5A5,5,0,0,1,32,38Zm0-8a3,3,0,1,0,3,3A3,3,0,0,0,32,30Z"/></svg>